<svg id="Layer_4" data-name="Layer 4" xmlns="http://www.w3.org/2000/svg" viewBox="0 0 383 79.012">
  <defs>
    <style>
      .cls-1 {
        fill: #fff;
      }

      .cls-2 {
        fill: #ff9100;
      }
    </style>
  </defs>
  <title>contents development</title>
  <rect class="cls-1" y="7.012" width="383" height="69"/>
  <g>
    <path class="cls-2" d="M141.324,157.3q0,7.148-3.936,11.016t-11.064,3.867h-9.238V143.625h9.883q6.875,0,10.615,3.516T141.324,157.3Zm-8.008.273q0-3.926-1.553-5.82a5.743,5.743,0,0,0-4.717-1.895H124.8v16h1.719q3.516,0,5.156-2.041T133.316,157.571Z" transform="translate(-64 -116.988)"/>
    <path class="cls-2" d="M163.395,172.18H146.441V143.625h16.953v6.191h-9.238v4.492h8.555V160.5h-8.555v5.391h9.238Z" transform="translate(-64 -116.988)"/>
    <path class="cls-2" d="M184.43,143.625h8.633l-9.355,28.555h-9.082l-9.316-28.555h8.672l3.887,14.473a44.2,44.2,0,0,1,1.328,6.719q.136-1.367.547-3.418t.723-3.223Z" transform="translate(-64 -116.988)"/>
    <path class="cls-2" d="M213.1,172.18H196.148V143.625H213.1v6.191h-9.238v4.492h8.555V160.5h-8.555v5.391H213.1Z" transform="translate(-64 -116.988)"/>
    <path class="cls-2" d="M218.1,172.18V143.625h7.715V165.95h11v6.23Z" transform="translate(-64 -116.988)"/>
    <path class="cls-2" d="M268.1,157.864q0,7.207-3.535,10.957t-10.352,3.75q-6.719,0-10.3-3.77t-3.584-10.977q0-7.129,3.564-10.889t10.361-3.76q6.816,0,10.332,3.73T268.1,157.864Zm-19.648,0q0,8.281,5.762,8.281a4.953,4.953,0,0,0,4.346-2.012q1.415-2.011,1.416-6.27,0-4.277-1.436-6.318a4.9,4.9,0,0,0-4.287-2.041Q248.453,149.5,248.453,157.864Z" transform="translate(-64 -116.988)"/>
    <path class="cls-2" d="M293.98,152.708q0,4.786-2.822,7.393t-8.018,2.607h-2.168v9.473h-7.715V143.625h9.883q5.41,0,8.125,2.363A8.431,8.431,0,0,1,293.98,152.708Zm-13.008,3.711h1.406a3.841,3.841,0,0,0,2.764-.977,3.544,3.544,0,0,0,1.025-2.7q0-2.89-3.2-2.891h-1.992Z" transform="translate(-64 -116.988)"/>
    <path class="cls-2" d="M310.973,172.18l-5.84-20.566h-.176q.41,5.254.41,8.164v12.4h-6.836V143.625H308.8l5.957,20.273h.156l5.84-20.273h10.293V172.18h-7.09v-12.52q0-.976.029-2.168t.264-5.84h-.176l-5.762,20.527Z" transform="translate(-64 -116.988)"/>
    <path class="cls-2" d="M354.156,172.18H337.2V143.625h16.953v6.191h-9.238v4.492h8.555V160.5h-8.555v5.391h9.238Z" transform="translate(-64 -116.988)"/>
    <path class="cls-2" d="M386.344,172.18H376.227L365.8,152.063h-.176q.371,4.746.371,7.246V172.18h-6.836V143.625h10.078l10.391,19.844h.117q-.274-4.316-.273-6.934v-12.91h6.875Z" transform="translate(-64 -116.988)"/>
    <path class="cls-2" d="M405.113,172.18H397.4V149.934h-6.973v-6.309h21.641v6.309h-6.953Z" transform="translate(-64 -116.988)"/>
  </g>
  <circle class="cls-2" cx="29" cy="43.012" r="10"/>
</svg>
