<svg id="Layer_2" data-name="Layer 2" xmlns="http://www.w3.org/2000/svg" viewBox="0 0 383 64.534">
  <defs>
    <style>
      .cls-1 {
        fill: #ff9100;
      }

      .cls-2 {
        fill: #fff;
      }
    </style>
  </defs>
  <title>contents header</title>
  <path class="cls-1" d="M0,0H358a25,25,0,0,1,25,25V62a0,0,0,0,1,0,0H0a0,0,0,0,1,0,0V0A0,0,0,0,1,0,0Z"/>
  <g>
    <path class="cls-2" d="M133.15,67.2a8.021,8.021,0,0,0-6.881,3.339q-2.437,3.339-2.437,9.306,0,12.416,9.318,12.416a29.449,29.449,0,0,0,9.471-1.955v6.6a26.3,26.3,0,0,1-10.207,1.9q-8.1,0-12.391-4.913t-4.291-14.1a23.028,23.028,0,0,1,2.107-10.144,15.23,15.23,0,0,1,6.056-6.678,17.913,17.913,0,0,1,9.255-2.323,24.984,24.984,0,0,1,10.867,2.615l-2.539,6.4a42.139,42.139,0,0,0-4.189-1.727A12.5,12.5,0,0,0,133.15,67.2Z" transform="translate(-64 -49)"/>
    <path class="cls-2" d="M184.211,79.688q0,9.217-4.57,14.168t-13.1,4.951q-8.531,0-13.1-4.951t-4.57-14.219q0-9.267,4.583-14.155t13.14-4.888q8.556,0,13.089,4.926T184.211,79.688Zm-27.092,0q0,6.221,2.361,9.369t7.059,3.148q9.42,0,9.42-12.518,0-12.543-9.369-12.543-4.7,0-7.084,3.161T157.119,79.688Z" transform="translate(-64 -49)"/>
    <path class="cls-2" d="M224.836,98.3h-10L198.684,70.218h-.229q.482,7.44.482,10.613V98.3H191.9V61.179h9.928l16.123,27.8h.178q-.381-7.236-.381-10.232V61.179h7.084Z" transform="translate(-64 -49)"/>
    <path class="cls-2" d="M248.5,98.3h-7.871V67.729h-10.08V61.179H258.58v6.551H248.5Z" transform="translate(-64 -49)"/>
    <path class="cls-2" d="M285.672,98.3H264.293V61.179h21.379v6.449H272.164v8.15h12.568v6.449H272.164V91.8h13.508Z" transform="translate(-64 -49)"/>
    <path class="cls-2" d="M326.348,98.3h-10L300.2,70.218h-.229q.482,7.44.482,10.613V98.3h-7.033V61.179h9.928l16.123,27.8h.178q-.381-7.236-.381-10.232V61.179h7.084Z" transform="translate(-64 -49)"/>
    <path class="cls-2" d="M350.012,98.3h-7.871V67.729h-10.08V61.179h28.031v6.551h-10.08Z" transform="translate(-64 -49)"/>
    <path class="cls-2" d="M387.717,87.991a9.6,9.6,0,0,1-3.618,7.922q-3.618,2.895-10.067,2.895a23.641,23.641,0,0,1-10.512-2.234V89.261a43.291,43.291,0,0,0,6.36,2.361,18.825,18.825,0,0,0,4.761.686,6.77,6.77,0,0,0,3.974-.99A3.386,3.386,0,0,0,380,88.372a3.253,3.253,0,0,0-.609-1.942,6.824,6.824,0,0,0-1.79-1.638,46.134,46.134,0,0,0-4.812-2.514,22.784,22.784,0,0,1-5.1-3.072,11.525,11.525,0,0,1-2.717-3.428,9.785,9.785,0,0,1-1.016-4.57,9.6,9.6,0,0,1,3.339-7.744q3.338-2.818,9.229-2.818a21.8,21.8,0,0,1,5.522.686,38.013,38.013,0,0,1,5.5,1.93L385,69.38a37.173,37.173,0,0,0-4.913-1.7,15.828,15.828,0,0,0-3.821-.482,5.062,5.062,0,0,0-3.428,1.041,3.433,3.433,0,0,0-1.193,2.717,3.364,3.364,0,0,0,.482,1.815,5.3,5.3,0,0,0,1.536,1.5,47.392,47.392,0,0,0,4.989,2.6q5.2,2.489,7.135,4.989A9.74,9.74,0,0,1,387.717,87.991Z" transform="translate(-64 -49)"/>
  </g>
</svg>
