<svg id="Layer_4" data-name="Layer 4" xmlns="http://www.w3.org/2000/svg" viewBox="0 0 383 79.012">
  <defs>
    <style>
      .cls-1 {
        fill: #fff;
      }

      .cls-2 {
        fill: #ff9100;
      }
    </style>
  </defs>
  <title>contents</title>
  <rect class="cls-1" y="7.012" width="383" height="69"/>
  <g>
    <path class="cls-2" d="M129.8,149.543a4.919,4.919,0,0,0-4.3,2.256,10.893,10.893,0,0,0-1.543,6.221q0,8.243,6.27,8.242a12.843,12.843,0,0,0,3.672-.527,36.711,36.711,0,0,0,3.574-1.27v6.523a19.78,19.78,0,0,1-8.086,1.582q-6.465,0-9.912-3.75t-3.447-10.84a17.3,17.3,0,0,1,1.67-7.793,11.951,11.951,0,0,1,4.8-5.166,14.513,14.513,0,0,1,7.373-1.807,20.316,20.316,0,0,1,8.848,2.012l-2.363,6.074a26.654,26.654,0,0,0-3.164-1.25A11.063,11.063,0,0,0,129.8,149.543Z" transform="translate(-64 -116.988)"/>
    <path class="cls-2" d="M169.762,157.864q0,7.207-3.535,10.957t-10.352,3.75q-6.719,0-10.3-3.77t-3.584-10.977q0-7.129,3.564-10.889t10.361-3.76q6.816,0,10.332,3.73T169.762,157.864Zm-19.648,0q0,8.281,5.762,8.281a4.953,4.953,0,0,0,4.346-2.012q1.416-2.011,1.416-6.27,0-4.277-1.436-6.318a4.9,4.9,0,0,0-4.287-2.041Q150.113,149.5,150.113,157.864Z" transform="translate(-64 -116.988)"/>
    <path class="cls-2" d="M202.105,172.18H191.988l-10.43-20.117h-.176q.371,4.746.371,7.246V172.18h-6.836V143.625H185l10.391,19.844h.117q-.274-4.316-.273-6.934v-12.91h6.875Z" transform="translate(-64 -116.988)"/>
    <path class="cls-2" d="M220.875,172.18H213.16V149.934h-6.973v-6.309h21.641v6.309h-6.953Z" transform="translate(-64 -116.988)"/>
    <path class="cls-2" d="M248.863,172.18H231.91V143.625h16.953v6.191h-9.238v4.492h8.555V160.5h-8.555v5.391h9.238Z" transform="translate(-64 -116.988)"/>
    <path class="cls-2" d="M279.586,172.18H270.66l-5.566-8.926-5.508,8.926h-8.73l9.473-14.609-8.906-13.945h8.555l5.156,8.828,4.961-8.828H278.9l-9.043,14.551Z" transform="translate(-64 -116.988)"/>
    <path class="cls-2" d="M295.387,172.18h-7.715V149.934H280.7v-6.309H302.34v6.309h-6.953Z" transform="translate(-64 -116.988)"/>
  </g>
  <circle class="cls-2" cx="29" cy="43.012" r="10"/>
</svg>
