<svg id="Layer_4" data-name="Layer 4" xmlns="http://www.w3.org/2000/svg" viewBox="0 0 383 79.012">
  <defs>
    <style>
      .cls-1 {
        fill: #fff;
      }

      .cls-2 {
        fill: #ff9100;
      }
    </style>
  </defs>
  <title>contents research</title>
  <rect class="cls-1" y="7.012" width="383" height="69"/>
  <g>
    <path class="cls-2" d="M124.8,161.79V172.18h-7.715V143.625h9.355q11.64,0,11.641,8.438,0,4.961-4.844,7.676l8.32,12.441h-8.75l-6.055-10.391Zm0-5.8h1.445q4.043,0,4.043-3.574,0-2.949-3.965-2.949H124.8Z" transform="translate(-64 -116.988)"/>
    <path class="cls-2" d="M161.109,172.18H144.156V143.625h16.953v6.191h-9.238v4.492h8.555V160.5h-8.555v5.391h9.238Z" transform="translate(-64 -116.988)"/>
    <path class="cls-2" d="M184.781,163.508a8.423,8.423,0,0,1-1.348,4.717,8.825,8.825,0,0,1-3.887,3.2,14.409,14.409,0,0,1-5.957,1.143,24.123,24.123,0,0,1-4.785-.4,17.746,17.746,0,0,1-4.023-1.4V163.9a22.936,22.936,0,0,0,4.59,1.768,17.094,17.094,0,0,0,4.375.635,4.249,4.249,0,0,0,2.52-.6,1.832,1.832,0,0,0,.8-1.533,1.687,1.687,0,0,0-.322-1.025,3.76,3.76,0,0,0-1.035-.889q-.713-.449-3.8-1.836a18.2,18.2,0,0,1-4.189-2.461,7.549,7.549,0,0,1-2.07-2.734,9.075,9.075,0,0,1-.674-3.652,7.321,7.321,0,0,1,2.871-6.152q2.871-2.207,7.891-2.207a22.144,22.144,0,0,1,9.043,2.051l-2.363,5.957a17.132,17.132,0,0,0-6.914-1.836,3.6,3.6,0,0,0-2.187.527,1.6,1.6,0,0,0-.684,1.309,1.888,1.888,0,0,0,.869,1.5,33.077,33.077,0,0,0,4.717,2.422,13.049,13.049,0,0,1,5.127,3.564A7.742,7.742,0,0,1,184.781,163.508Z" transform="translate(-64 -116.988)"/>
    <path class="cls-2" d="M206.148,172.18H189.2V143.625h16.953v6.191H196.91v4.492h8.555V160.5H196.91v5.391h9.238Z" transform="translate(-64 -116.988)"/>
    <path class="cls-2" d="M228.668,172.18l-1.406-5.352h-9.277l-1.445,5.352h-8.477l9.316-28.672h10.293l9.434,28.672ZM225.66,160.5l-1.23-4.687q-.43-1.562-1.045-4.043t-.811-3.555q-.176,1-.693,3.281t-2.295,9Z" transform="translate(-64 -116.988)"/>
    <path class="cls-2" d="M247.906,161.79V172.18h-7.715V143.625h9.355q11.64,0,11.641,8.438,0,4.961-4.844,7.676l8.32,12.441h-8.75l-6.055-10.391Zm0-5.8h1.445q4.043,0,4.043-3.574,0-2.949-3.965-2.949h-1.523Z" transform="translate(-64 -116.988)"/>
    <path class="cls-2" d="M279.977,149.543a4.919,4.919,0,0,0-4.3,2.256,10.889,10.889,0,0,0-1.543,6.221q0,8.243,6.27,8.242a12.845,12.845,0,0,0,3.672-.527,36.711,36.711,0,0,0,3.574-1.27v6.523a19.78,19.78,0,0,1-8.086,1.582q-6.466,0-9.912-3.75t-3.447-10.84a17.3,17.3,0,0,1,1.67-7.793,11.951,11.951,0,0,1,4.8-5.166,14.512,14.512,0,0,1,7.373-1.807,20.316,20.316,0,0,1,8.848,2.012l-2.363,6.074a26.654,26.654,0,0,0-3.164-1.25A11.063,11.063,0,0,0,279.977,149.543Z" transform="translate(-64 -116.988)"/>
    <path class="cls-2" d="M317.691,172.18h-7.754V160.54h-8.965V172.18h-7.754V143.625h7.754v10.586h8.965V143.625h7.754Z" transform="translate(-64 -116.988)"/>
  </g>
  <circle class="cls-2" cx="29" cy="43.012" r="10"/>
</svg>
