<svg id="Layer_1" data-name="Layer 1" xmlns="http://www.w3.org/2000/svg" viewBox="0 0 396 80">
  <defs>
    <style>
      .cls-1 {
        fill: #ff9100;
      }

      .cls-2 {
        fill: #fff;
      }
    </style>
  </defs>
  <title>header reflection</title>
  <path class="cls-1" d="M454,296H58V246a30,30,0,0,1,30-30H424a30,30,0,0,1,30,30Z" transform="translate(-58 -216)"/>
  <g>
    <path class="cls-2" d="M89.256,261.642v16.436H80.174V235.245h12.48q8.73,0,12.92,3.179t4.189,9.653a11.364,11.364,0,0,1-2.08,6.724,13.769,13.769,0,0,1-5.889,4.614q9.668,14.443,12.6,18.662H104.314L94.09,261.642Zm0-7.383h2.93q4.307,0,6.357-1.436a5.125,5.125,0,0,0,2.051-4.512,4.688,4.688,0,0,0-2.095-4.336q-2.095-1.289-6.489-1.289H89.256Z" transform="translate(-58 -216)"/>
    <path class="cls-2" d="M144.451,278.077H119.783V235.245h24.668v7.441H128.865v9.4h14.5v7.441h-14.5v11.045h15.586Z" transform="translate(-58 -216)"/>
    <path class="cls-2" d="M162.322,278.077h-8.936V235.245h24.551v7.441H162.322v11.045h14.531v7.412H162.322Z" transform="translate(-58 -216)"/>
    <path class="cls-2" d="M186.316,278.077V235.245H195.4v35.332h17.373v7.5Z" transform="translate(-58 -216)"/>
    <path class="cls-2" d="M244.881,278.077H220.213V235.245h24.668v7.441H229.295v9.4h14.5v7.441h-14.5v11.045h15.586Z" transform="translate(-58 -216)"/>
    <path class="cls-2" d="M272.01,242.188a9.255,9.255,0,0,0-7.939,3.853q-2.812,3.853-2.812,10.737,0,14.326,10.752,14.326a33.988,33.988,0,0,0,10.928-2.256v7.617a30.347,30.347,0,0,1-11.777,2.2q-9.346,0-14.3-5.669t-4.951-16.274a26.57,26.57,0,0,1,2.432-11.7,17.575,17.575,0,0,1,6.987-7.705,20.668,20.668,0,0,1,10.679-2.681,28.828,28.828,0,0,1,12.539,3.018l-2.93,7.383a48.612,48.612,0,0,0-4.834-1.992A14.421,14.421,0,0,0,272.01,242.188Z" transform="translate(-58 -216)"/>
    <path class="cls-2" d="M308.572,278.077H299.49V242.8H287.859v-7.559H320.2V242.8H308.572Z" transform="translate(-58 -216)"/>
    <path class="cls-2" d="M326.795,278.077V235.245h9.082v42.832Z" transform="translate(-58 -216)"/>
    <path class="cls-2" d="M385.535,256.6q0,10.635-5.273,16.348t-15.117,5.713q-9.844,0-15.117-5.713t-5.273-16.406q0-10.693,5.288-16.333t15.161-5.64q9.873,0,15.1,5.684T385.535,256.6Zm-31.26,0q0,7.178,2.725,10.811t8.145,3.633q10.869,0,10.869-14.443,0-14.473-10.811-14.473-5.42,0-8.174,3.647T354.275,256.6Z" transform="translate(-58 -216)"/>
    <path class="cls-2" d="M432.41,278.077H420.867l-18.633-32.4h-.264q.557,8.585.557,12.246v20.156h-8.115V235.245h11.455l18.6,32.08h.205q-.439-8.35-.439-11.807V235.245h8.174Z" transform="translate(-58 -216)"/>
  </g>
</svg>
