<svg id="Layer_1" data-name="Layer 1" xmlns="http://www.w3.org/2000/svg" viewBox="0 0 455.05 58.626">
  <defs>
    <style>
      .cls-1 {
        fill: #ff9100;
      }

      .cls-2 {
        fill: #fff;
      }
    </style>
  </defs>
  <title>header process</title>
  <path class="cls-1" d="M357.575,296H17V269a30,30,0,0,1,30-30H327.575a30,30,0,0,1,30,30Z" transform="translate(-17 -239)"/>
  <g>
    <path class="cls-2" d="M59.036,267.68q0,7.535-4.29,11.543T42.357,283.23H33.715V252.713H43.3q7.473,0,11.606,3.945T59.036,267.68Zm-6.722.167q0-9.832-8.684-9.832H40.186v19.872h2.776Q52.314,277.887,52.314,267.847Z" transform="translate(-17 -239)"/>
    <path class="cls-2" d="M82.937,283.23H65.36V252.713H82.937v5.3H71.831v6.7H82.164v5.3H71.831v7.869H82.937Z" transform="translate(-17 -239)"/>
    <path class="cls-2" d="M106.712,252.713h6.533L102.871,283.23H95.815L85.462,252.713H92l5.74,18.16q.48,1.607.992,3.747t.637,2.975a53.436,53.436,0,0,1,1.565-6.722Z" transform="translate(-17 -239)"/>
    <path class="cls-2" d="M134.662,283.23H117.086V252.713h17.576v5.3H123.557v6.7H133.89v5.3H123.557v7.869h11.105Z" transform="translate(-17 -239)"/>
    <path class="cls-2" d="M141.028,283.23V252.713H147.5v25.174h12.378v5.344Z" transform="translate(-17 -239)"/>
    <path class="cls-2" d="M192.879,267.93q0,7.578-3.757,11.647t-10.771,4.071q-7.014,0-10.771-4.071t-3.757-11.689q0-7.619,3.768-11.637t10.8-4.019q7.034,0,10.76,4.05T192.879,267.93Zm-22.272,0q0,5.115,1.941,7.7a6.791,6.791,0,0,0,5.8,2.588q7.745,0,7.745-10.291,0-10.311-7.7-10.312a6.838,6.838,0,0,0-5.824,2.6Q170.606,262.815,170.607,267.93Z" transform="translate(-17 -239)"/>
    <path class="cls-2" d="M220.287,262.231q0,4.926-3.079,7.535t-8.757,2.609h-2.776V283.23H199.2V252.713h9.748q5.552,0,8.444,2.39T220.287,262.231Zm-14.612,4.843H207.8a7.093,7.093,0,0,0,4.467-1.18,4.128,4.128,0,0,0,1.482-3.434,4.237,4.237,0,0,0-1.242-3.361,5.826,5.826,0,0,0-3.893-1.085h-2.943Z" transform="translate(-17 -239)"/>
    <path class="cls-2" d="M238.969,283.23l-7.348-23.942h-.187q.4,7.307.4,9.748V283.23h-5.782V252.713h8.809l7.223,23.337h.125l7.661-23.337h8.809V283.23h-6.032V268.785q0-1.022.031-2.358t.282-7.1h-.188l-7.87,23.9Z" transform="translate(-17 -239)"/>
    <path class="cls-2" d="M283.932,283.23H266.355V252.713h17.576v5.3H272.826v6.7h10.333v5.3H272.826v7.869h11.105Z" transform="translate(-17 -239)"/>
    <path class="cls-2" d="M317.371,283.23h-8.224l-13.276-23.087h-.187q.4,6.117.4,8.726V283.23H290.3V252.713h8.162l13.255,22.856h.146q-.312-5.949-.312-8.412V252.713h5.823Z" transform="translate(-17 -239)"/>
    <path class="cls-2" d="M336.825,283.23h-6.471V258.1h-8.287v-5.385h23.045V258.1h-8.287Z" transform="translate(-17 -239)"/>
  </g>
  <g>
    <path class="cls-1" d="M366.24,266.359h-1.757v-6.826h-2.251v-1.462h6.259v1.462H366.24Z" transform="translate(-17 -239)"/>
    <path class="cls-1" d="M371.524,263.179v3.181h-1.758v-8.288h2.415a4.132,4.132,0,0,1,2.5.615,2.45,2.45,0,0,1,.408,3.169,2.662,2.662,0,0,1-1.14.893q1.872,2.795,2.438,3.611h-1.95l-1.979-3.181Zm0-1.429h.566a2.167,2.167,0,0,0,1.23-.277.992.992,0,0,0,.4-.873.905.905,0,0,0-.405-.839,2.448,2.448,0,0,0-1.255-.25h-.533Z" transform="translate(-17 -239)"/>
    <path class="cls-1" d="M382.205,266.359h-4.773v-8.288h4.773v1.439h-3.016v1.82H382v1.439h-2.806v2.138h3.016Z" transform="translate(-17 -239)"/>
    <path class="cls-1" d="M389.009,266.359l-.6-1.973h-3.022l-.6,1.973h-1.894l2.926-8.322h2.148l2.937,8.322Zm-1.021-3.447q-.833-2.681-.938-3.032c-.069-.234-.12-.42-.15-.556q-.186.725-1.071,3.588Z" transform="translate(-17 -239)"/>
    <path class="cls-1" d="M395.143,266.359h-1.757v-6.826h-2.251v-1.462h6.259v1.462h-2.251Z" transform="translate(-17 -239)"/>
    <path class="cls-1" d="M404.882,266.359h-1.757v-6.826h-2.251v-1.462h6.259v1.462h-2.251Z" transform="translate(-17 -239)"/>
    <path class="cls-1" d="M415.2,266.359h-1.752v-3.577h-3.282v3.577h-1.758v-8.288h1.758v3.248h3.282v-3.248H415.2Z" transform="translate(-17 -239)"/>
    <path class="cls-1" d="M417.292,266.359v-8.288h1.758v8.288Z" transform="translate(-17 -239)"/>
    <path class="cls-1" d="M426.028,264.058a2.143,2.143,0,0,1-.808,1.769,3.506,3.506,0,0,1-2.248.646,5.269,5.269,0,0,1-2.347-.5v-1.633a9.511,9.511,0,0,0,1.42.527,4.179,4.179,0,0,0,1.063.153A1.52,1.52,0,0,0,424,264.8a.757.757,0,0,0,.309-.658.726.726,0,0,0-.136-.434,1.516,1.516,0,0,0-.4-.365,10.271,10.271,0,0,0-1.074-.562,5.064,5.064,0,0,1-1.14-.687,2.543,2.543,0,0,1-.606-.765,2.184,2.184,0,0,1-.228-1.021,2.143,2.143,0,0,1,.746-1.729,3.1,3.1,0,0,1,2.061-.629,4.85,4.85,0,0,1,1.233.153,8.376,8.376,0,0,1,1.227.431l-.566,1.366a8.2,8.2,0,0,0-1.1-.38,3.512,3.512,0,0,0-.854-.107,1.128,1.128,0,0,0-.766.232.764.764,0,0,0-.267.606.748.748,0,0,0,.108.405,1.168,1.168,0,0,0,.343.334,10.334,10.334,0,0,0,1.114.581,4.445,4.445,0,0,1,1.593,1.114A2.175,2.175,0,0,1,426.028,264.058Z" transform="translate(-17 -239)"/>
    <path class="cls-1" d="M435.62,266.359l-.6-1.973H432l-.6,1.973H429.5l2.926-8.322h2.148l2.937,8.322Zm-1.021-3.447q-.833-2.681-.938-3.032c-.069-.234-.12-.42-.15-.556q-.186.725-1.071,3.588Z" transform="translate(-17 -239)"/>
    <path class="cls-1" d="M443.449,264.058a2.143,2.143,0,0,1-.808,1.769,3.506,3.506,0,0,1-2.248.646,5.269,5.269,0,0,1-2.347-.5v-1.633a9.511,9.511,0,0,0,1.42.527,4.179,4.179,0,0,0,1.063.153,1.52,1.52,0,0,0,.888-.221.757.757,0,0,0,.309-.658.726.726,0,0,0-.136-.434,1.516,1.516,0,0,0-.4-.365,10.271,10.271,0,0,0-1.074-.562,5.064,5.064,0,0,1-1.14-.687,2.543,2.543,0,0,1-.606-.765,2.184,2.184,0,0,1-.228-1.021,2.143,2.143,0,0,1,.746-1.729,3.1,3.1,0,0,1,2.061-.629,4.85,4.85,0,0,1,1.233.153,8.376,8.376,0,0,1,1.227.431l-.566,1.366a8.2,8.2,0,0,0-1.1-.38,3.512,3.512,0,0,0-.854-.107,1.128,1.128,0,0,0-.766.232.764.764,0,0,0-.267.606.748.748,0,0,0,.108.405,1.168,1.168,0,0,0,.343.334,10.334,10.334,0,0,0,1.114.581,4.445,4.445,0,0,1,1.593,1.114A2.175,2.175,0,0,1,443.449,264.058Z" transform="translate(-17 -239)"/>
    <path class="cls-1" d="M451.164,266.359h-1.757v-6.826h-2.251v-1.462h6.259v1.462h-2.251Z" transform="translate(-17 -239)"/>
    <path class="cls-1" d="M461.482,266.359H459.73v-3.577h-3.282v3.577H454.69v-8.288h1.758v3.248h3.282v-3.248h1.752Z" transform="translate(-17 -239)"/>
    <path class="cls-1" d="M468.348,266.359h-4.773v-8.288h4.773v1.439h-3.016v1.82h2.806v1.439h-2.806v2.138h3.016Z" transform="translate(-17 -239)"/>
    <path class="cls-1" d="M368.77,274.589a2.535,2.535,0,0,1-.837,2.047,3.579,3.579,0,0,1-2.378.708H364.8v2.948h-1.758V272h2.647a3.521,3.521,0,0,1,2.293.648A2.369,2.369,0,0,1,368.77,274.589ZM364.8,275.9h.578a1.93,1.93,0,0,0,1.213-.32,1.121,1.121,0,0,0,.4-.933,1.15,1.15,0,0,0-.337-.913,1.581,1.581,0,0,0-1.058-.295h-.8Z" transform="translate(-17 -239)"/>
    <path class="cls-1" d="M372.092,277.111v3.181h-1.758V272h2.415a4.132,4.132,0,0,1,2.5.615,2.45,2.45,0,0,1,.408,3.169,2.662,2.662,0,0,1-1.14.893q1.872,2.795,2.438,3.611h-1.95l-1.979-3.181Zm0-1.429h.566a2.167,2.167,0,0,0,1.23-.277.992.992,0,0,0,.4-.873.905.905,0,0,0-.405-.839,2.448,2.448,0,0,0-1.255-.25h-.533Z" transform="translate(-17 -239)"/>
    <path class="cls-1" d="M385.522,276.137A4.5,4.5,0,0,1,384.5,279.3a4.423,4.423,0,0,1-5.851,0,4.514,4.514,0,0,1-1.021-3.175,4.452,4.452,0,0,1,1.023-3.16,3.826,3.826,0,0,1,2.934-1.092,3.777,3.777,0,0,1,2.923,1.1A4.514,4.514,0,0,1,385.522,276.137Zm-6.049,0a3.469,3.469,0,0,0,.526,2.092,1.845,1.845,0,0,0,1.576.7q2.1,0,2.1-2.795t-2.092-2.8a1.858,1.858,0,0,0-1.582.706A3.447,3.447,0,0,0,379.474,276.137Z" transform="translate(-17 -239)"/>
    <path class="cls-1" d="M394.117,276.068a4.082,4.082,0,0,1-1.165,3.135,4.751,4.751,0,0,1-3.364,1.089H387.24V272h2.6A4.382,4.382,0,0,1,393,273.075,3.941,3.941,0,0,1,394.117,276.068Zm-1.825.046q0-2.67-2.358-2.671H389v5.4h.754Q392.292,278.841,392.292,276.114Z" transform="translate(-17 -239)"/>
    <path class="cls-1" d="M402.581,272v5.362a3.1,3.1,0,0,1-.41,1.61,2.679,2.679,0,0,1-1.188,1.061,4.255,4.255,0,0,1-1.837.368,3.511,3.511,0,0,1-2.482-.819,2.9,2.9,0,0,1-.885-2.242V272h1.752v5.073a2.122,2.122,0,0,0,.386,1.406,1.6,1.6,0,0,0,1.275.448,1.566,1.566,0,0,0,1.25-.451,2.134,2.134,0,0,0,.389-1.414V272Z" transform="translate(-17 -239)"/>
    <path class="cls-1" d="M408.132,273.348a1.791,1.791,0,0,0-1.536.745,3.465,3.465,0,0,0-.544,2.078q0,2.771,2.08,2.771a6.582,6.582,0,0,0,2.115-.437v1.475a5.88,5.88,0,0,1-2.279.425,3.475,3.475,0,0,1-2.767-1.1,4.646,4.646,0,0,1-.958-3.149,5.133,5.133,0,0,1,.471-2.265,3.4,3.4,0,0,1,1.352-1.491,4,4,0,0,1,2.066-.519,5.571,5.571,0,0,1,2.427.584l-.567,1.429a9.292,9.292,0,0,0-.935-.386A2.8,2.8,0,0,0,408.132,273.348Z" transform="translate(-17 -239)"/>
    <path class="cls-1" d="M415.207,280.292H413.45v-6.826H411.2V272h6.259v1.462h-2.251Z" transform="translate(-17 -239)"/>
    <path class="cls-1" d="M418.733,280.292V272h1.758v8.288Z" transform="translate(-17 -239)"/>
    <path class="cls-1" d="M430.1,276.137a4.5,4.5,0,0,1-1.021,3.163,4.423,4.423,0,0,1-5.851,0,4.514,4.514,0,0,1-1.021-3.175,4.452,4.452,0,0,1,1.023-3.16,3.826,3.826,0,0,1,2.934-1.092,3.777,3.777,0,0,1,2.923,1.1A4.514,4.514,0,0,1,430.1,276.137Zm-6.049,0a3.469,3.469,0,0,0,.526,2.092,1.845,1.845,0,0,0,1.576.7q2.1,0,2.1-2.795t-2.092-2.8a1.858,1.858,0,0,0-1.582.706A3.447,3.447,0,0,0,424.052,276.137Z" transform="translate(-17 -239)"/>
    <path class="cls-1" d="M439.172,280.292h-2.234l-3.605-6.271h-.051q.107,1.661.107,2.37v3.9h-1.57V272h2.217l3.6,6.207h.04q-.085-1.616-.085-2.284V272h1.582Z" transform="translate(-17 -239)"/>
    <path class="cls-1" d="M369.92,290a4.082,4.082,0,0,1-1.165,3.135,4.751,4.751,0,0,1-3.364,1.089h-2.348v-8.288h2.6a4.382,4.382,0,0,1,3.152,1.071A3.941,3.941,0,0,1,369.92,290Zm-1.825.046q0-2.67-2.358-2.671H364.8v5.4h.754Q368.095,292.773,368.095,290.047Z" transform="translate(-17 -239)"/>
    <path class="cls-1" d="M371.638,294.225v-8.288H373.4v8.288Z" transform="translate(-17 -239)"/>
    <path class="cls-1" d="M380.556,294.225l-.6-1.973h-3.022l-.6,1.973h-1.894l2.926-8.322h2.148l2.937,8.322Zm-1.021-3.447q-.833-2.681-.938-3.032c-.069-.234-.12-.42-.15-.556q-.186.725-1.071,3.588Z" transform="translate(-17 -239)"/>
    <path class="cls-1" d="M385.25,291.044v3.181h-1.758v-8.288h2.415a4.132,4.132,0,0,1,2.5.615,2.45,2.45,0,0,1,.408,3.169,2.662,2.662,0,0,1-1.14.893q1.872,2.795,2.438,3.611h-1.95l-1.979-3.181Zm0-1.429h.566a2.167,2.167,0,0,0,1.23-.277.992.992,0,0,0,.4-.873.905.905,0,0,0-.405-.839,2.448,2.448,0,0,0-1.255-.25h-.533Z" transform="translate(-17 -239)"/>
    <path class="cls-1" d="M393.737,289.349l1.729-3.412h1.894L394.61,291v3.226h-1.746v-3.169l-2.75-5.119h1.905Z" transform="translate(-17 -239)"/>
  </g>
</svg>
