<svg id="Layer_1" data-name="Layer 1" xmlns="http://www.w3.org/2000/svg" viewBox="0 0 344 80">
  <defs>
    <style>
      .cls-1 {
        fill: #ff9100;
      }

      .cls-2 {
        fill: #fff;
      }
    </style>
  </defs>
  <title>header research</title>
  <path class="cls-1" d="M428,296H84V246a30,30,0,0,1,30-30H398a30,30,0,0,1,30,30Z" transform="translate(-84 -216)"/>
  <g>
    <path class="cls-2" d="M118.859,261.642v16.436h-9.082V235.245h12.48q8.73,0,12.92,3.179t4.189,9.653a11.364,11.364,0,0,1-2.08,6.724,13.769,13.769,0,0,1-5.889,4.614q9.668,14.443,12.6,18.662H133.918l-10.225-16.436Zm0-7.383h2.93q4.307,0,6.357-1.436a5.125,5.125,0,0,0,2.051-4.512,4.688,4.688,0,0,0-2.095-4.336q-2.095-1.289-6.489-1.289h-2.754Z" transform="translate(-84 -216)"/>
    <path class="cls-2" d="M174.055,278.077H149.387V235.245h24.668v7.441H158.469v9.4h14.5v7.441h-14.5v11.045h15.586Z" transform="translate(-84 -216)"/>
    <path class="cls-2" d="M208.273,266.183a11.072,11.072,0,0,1-4.175,9.141q-4.175,3.34-11.616,3.34a27.281,27.281,0,0,1-12.129-2.578v-8.437a49.942,49.942,0,0,0,7.339,2.725,21.716,21.716,0,0,0,5.493.791,7.811,7.811,0,0,0,4.585-1.143,3.908,3.908,0,0,0,1.6-3.4,3.752,3.752,0,0,0-.7-2.241,7.868,7.868,0,0,0-2.065-1.89,53.121,53.121,0,0,0-5.552-2.9,26.291,26.291,0,0,1-5.889-3.545,13.288,13.288,0,0,1-3.135-3.955,11.287,11.287,0,0,1-1.172-5.273,11.07,11.07,0,0,1,3.853-8.936q3.852-3.252,10.649-3.252a25.148,25.148,0,0,1,6.372.791,43.879,43.879,0,0,1,6.343,2.227l-2.93,7.061a42.864,42.864,0,0,0-5.669-1.963,18.271,18.271,0,0,0-4.409-.557,5.839,5.839,0,0,0-3.955,1.2,3.961,3.961,0,0,0-1.377,3.135,3.878,3.878,0,0,0,.557,2.095,6.108,6.108,0,0,0,1.772,1.729,54.7,54.7,0,0,0,5.757,3q6.005,2.871,8.232,5.757A11.238,11.238,0,0,1,208.273,266.183Z" transform="translate(-84 -216)"/>
    <path class="cls-2" d="M240.705,278.077H216.037V235.245h24.668v7.441H225.119v9.4h14.5v7.441h-14.5v11.045h15.586Z" transform="translate(-84 -216)"/>
    <path class="cls-2" d="M275.861,278.077l-3.105-10.2H257.141l-3.105,10.2H244.25l15.117-43.008h11.1l15.176,43.008Zm-5.273-17.812q-4.307-13.857-4.849-15.674t-.776-2.871q-.967,3.751-5.537,18.545Z" transform="translate(-84 -216)"/>
    <path class="cls-2" d="M300.119,261.642v16.436h-9.082V235.245h12.48q8.73,0,12.92,3.179t4.189,9.653a11.364,11.364,0,0,1-2.08,6.724,13.763,13.763,0,0,1-5.889,4.614q9.668,14.443,12.6,18.662H315.178l-10.225-16.436Zm0-7.383h2.93q4.307,0,6.357-1.436a5.124,5.124,0,0,0,2.051-4.512,4.689,4.689,0,0,0-2.095-4.336q-2.095-1.289-6.489-1.289h-2.754Z" transform="translate(-84 -216)"/>
    <path class="cls-2" d="M348.84,242.188a9.255,9.255,0,0,0-7.939,3.853q-2.812,3.853-2.812,10.737,0,14.326,10.752,14.326a33.988,33.988,0,0,0,10.928-2.256v7.617a30.347,30.347,0,0,1-11.777,2.2q-9.346,0-14.3-5.669t-4.951-16.274a26.577,26.577,0,0,1,2.432-11.7,17.575,17.575,0,0,1,6.987-7.705,20.668,20.668,0,0,1,10.679-2.681,28.828,28.828,0,0,1,12.539,3.018l-2.93,7.383a48.612,48.612,0,0,0-4.834-1.992A14.421,14.421,0,0,0,348.84,242.188Z" transform="translate(-84 -216)"/>
    <path class="cls-2" d="M403.977,278.077h-9.053V259.591H377.961v18.486h-9.082V235.245h9.082v16.787h16.963V235.245h9.053Z" transform="translate(-84 -216)"/>
  </g>
</svg>
