<svg id="Layer_1" data-name="Layer 1" xmlns="http://www.w3.org/2000/svg" viewBox="0 0 300 80">
  <defs>
    <style>
      .cls-1 {
        fill: #ff9100;
      }

      .cls-2 {
        fill: #fff;
      }
    </style>
  </defs>
  <title>header context</title>
  <path class="cls-1" d="M406,296H106V246a30,30,0,0,1,30-30H376a30,30,0,0,1,30,30Z" transform="translate(-106 -216)"/>
  <g>
    <path class="cls-2" d="M136.367,242.188a9.255,9.255,0,0,0-7.939,3.853q-2.812,3.853-2.812,10.737,0,14.326,10.752,14.326a33.991,33.991,0,0,0,10.928-2.256v7.617a30.347,30.347,0,0,1-11.777,2.2q-9.346,0-14.3-5.669T116.27,256.72a26.57,26.57,0,0,1,2.432-11.7,17.575,17.575,0,0,1,6.987-7.705,20.668,20.668,0,0,1,10.679-2.681,28.83,28.83,0,0,1,12.539,3.018l-2.93,7.383a48.612,48.612,0,0,0-4.834-1.992A14.423,14.423,0,0,0,136.367,242.188Z" transform="translate(-106 -216)"/>
    <path class="cls-2" d="M195.283,256.6q0,10.635-5.273,16.348t-15.117,5.713q-9.844,0-15.117-5.713T154.5,256.544q0-10.693,5.288-16.333t15.161-5.64q9.872,0,15.1,5.684T195.283,256.6Zm-31.26,0q0,7.178,2.725,10.811t8.145,3.633q10.869,0,10.869-14.443,0-14.473-10.811-14.473-5.421,0-8.174,3.647T164.023,256.6Z" transform="translate(-106 -216)"/>
    <path class="cls-2" d="M242.158,278.077H230.615l-18.633-32.4h-.264q.556,8.585.557,12.246v20.156H204.16V235.245h11.455l18.6,32.08h.205q-.439-8.35-.439-11.807V235.245h8.174Z" transform="translate(-106 -216)"/>
    <path class="cls-2" d="M269.463,278.077h-9.082V242.8H248.75v-7.559h32.344V242.8H269.463Z" transform="translate(-106 -216)"/>
    <path class="cls-2" d="M312.354,278.077H287.686V235.245h24.668v7.441H296.768v9.4h14.5v7.441h-14.5v11.045h15.586Z" transform="translate(-106 -216)"/>
    <path class="cls-2" d="M355.918,278.077H345.547l-9.961-16.2-9.961,16.2H315.9l14.209-22.09-13.3-20.742h10.02l9.229,15.41,9.053-15.41h9.785l-13.447,21.24Z" transform="translate(-106 -216)"/>
    <path class="cls-2" d="M377.832,278.077H368.75V242.8H357.119v-7.559h32.344V242.8H377.832Z" transform="translate(-106 -216)"/>
  </g>
</svg>
