<svg id="Layer_1" data-name="Layer 1" xmlns="http://www.w3.org/2000/svg" viewBox="0 0 977.714 162.516">
  <defs>
    <style>
      .cls-1 {
        fill: #fff;
      }

      .cls-2 {
        fill: #ff9e00;
      }
    </style>
  </defs>
  <title>title</title>
  <g>
    <path class="cls-1" d="M119.935,320.5a54.157,54.157,0,0,1-51.616-70.554l6.253-19.685A53.966,53.966,0,0,1,126.188,192.5H909.9a54.156,54.156,0,0,1,51.614,70.554l-6.253,19.686A53.965,53.965,0,0,1,903.646,320.5Z" transform="translate(-15.314 -186)"/>
    <path class="cls-2" d="M909.9,199a47.657,47.657,0,0,1,45.42,62.086l-6.254,19.686A47.488,47.488,0,0,1,903.647,314H119.935a47.657,47.657,0,0,1-45.42-62.086l6.254-19.686A47.488,47.488,0,0,1,126.188,199H909.9m0-13H126.188a60.657,60.657,0,0,0-57.81,42.293l-6.254,19.686A60.657,60.657,0,0,0,119.935,327H903.647a60.657,60.657,0,0,0,57.81-42.293l6.254-19.686A60.657,60.657,0,0,0,909.9,186Z" transform="translate(-15.314 -186)"/>
  </g>
  <path class="cls-2" d="M903.646,327H119.935a60.657,60.657,0,0,1-57.81-79.022l6.254-19.686A60.657,60.657,0,0,1,126.188,186H924.623a49.886,49.886,0,0,1,47.545,64.99l-10.711,33.717A60.657,60.657,0,0,1,903.646,327Z" transform="translate(-15.314 -186)"/>
  <g>
    <path class="cls-1" d="M105.212,320.5a43.387,43.387,0,0,1-41.351-56.522L74.573,230.26a53.966,53.966,0,0,1,51.616-37.76H708.623a43.387,43.387,0,0,1,41.35,56.522l-10.711,33.717A53.965,53.965,0,0,1,687.646,320.5Z" transform="translate(-15.314 -186)"/>
    <path class="cls-2" d="M708.623,199a36.886,36.886,0,0,1,35.155,48.054l-10.711,33.718A47.487,47.487,0,0,1,687.646,314H105.212a36.886,36.886,0,0,1-35.155-48.054l10.711-33.717A47.488,47.488,0,0,1,126.188,199H708.623m0-13H126.188a60.657,60.657,0,0,0-57.81,42.292L57.667,262.01A49.886,49.886,0,0,0,105.212,327H687.646a60.657,60.657,0,0,0,57.81-42.293l10.711-33.717A49.886,49.886,0,0,0,708.623,186Z" transform="translate(-15.314 -186)"/>
  </g>
  <g>
    <path class="cls-2" d="M82.226,284.254l17.163-54.029h38.229L134.4,240.351H107.673l-3.6,11.34h26.161l-3.216,10.126H100.854l-7.127,22.438Z" transform="translate(-15.314 -186)"/>
    <path class="cls-2" d="M128.477,284.254l17.163-54.029h11.5l-17.163,54.029Z" transform="translate(-15.314 -186)"/>
    <path class="cls-2" d="M149.363,276.64l9.173-8.99c2.546,3.968,7.377,7.37,14.83,7.37,6.4,0,10.3-2.835,11.3-5.994,2.985-9.4-30.2-2.835-23.742-23.167,2.856-8.991,13-16.443,25.715-16.443,8.585,0,14.889,2.592,18.665,7.533l-9.126,8.586c-3.087-4.05-8.327-5.913-13.835-5.913-4.859,0-8.282,2.106-9.312,5.346-2.7,8.505,30.146,2.754,23.738,22.924-3.139,9.882-12.633,17.334-27.131,17.334C159.189,285.226,152.844,281.743,149.363,276.64Z" transform="translate(-15.314 -186)"/>
    <path class="cls-2" d="M236.283,284.254l7.23-22.762H218l-7.23,22.762h-11.5l17.163-54.029h11.5l-6.742,21.223H246.7l6.742-21.223h11.582l-17.163,54.029Z" transform="translate(-15.314 -186)"/>
    <path class="cls-2" d="M277.989,276.64l9.173-8.99c2.546,3.968,7.377,7.37,14.83,7.37,6.4,0,10.3-2.835,11.3-5.994,2.985-9.4-30.2-2.835-23.742-23.167,2.856-8.991,13-16.443,25.715-16.443,8.585,0,14.889,2.592,18.665,7.533l-9.126,8.586c-3.087-4.05-8.327-5.913-13.835-5.913-4.859,0-8.282,2.106-9.312,5.346-2.7,8.505,30.146,2.754,23.738,22.924-3.139,9.882-12.633,17.334-27.131,17.334C287.815,285.226,281.47,281.743,277.989,276.64Z" transform="translate(-15.314 -186)"/>
    <path class="cls-2" d="M327.9,284.254l17.163-54.029h11.5L339.4,284.254Z" transform="translate(-15.314 -186)"/>
    <path class="cls-2" d="M397.065,284.254l12.377-38.962-27.6,38.962h-5.021l-2.85-38.962L361.59,284.254h-11.5l17.163-54.029h16.117L385.76,264l23.852-33.778h16.2l-17.163,54.029Z" transform="translate(-15.314 -186)"/>
    <path class="cls-2" d="M426.214,262.627l10.293-32.4H448.17L437.979,262.3c-2.393,7.532.333,12.717,8.676,12.717s14.282-5.185,16.674-12.717l10.19-32.078h11.744l-10.293,32.4c-4.246,13.365-15.117,22.6-31.558,22.6S421.968,275.992,426.214,262.627Z" transform="translate(-15.314 -186)"/>
    <path class="cls-2" d="M478.312,284.254l17.163-54.029h11.582l-13.947,43.9H515.95l-3.216,10.125Z" transform="translate(-15.314 -186)"/>
    <path class="cls-2" d="M557.851,284.254l-.494-9.153H534.192l-6.31,9.153h-13.04l37.979-54.029h14.417l3.652,54.029Zm-1.475-42.526-15.809,23.248h16.847Z" transform="translate(-15.314 -186)"/>
    <path class="cls-2" d="M583.205,284.254l13.946-43.9H581.357l3.217-10.125h43.089l-3.217,10.125H608.733l-13.946,43.9Z" transform="translate(-15.314 -186)"/>
    <path class="cls-2" d="M621.906,257.28c5.172-16.282,20.783-27.946,37.145-27.946,16.279,0,24.48,11.664,19.308,27.946s-20.784,27.945-37.063,27.945C624.936,285.226,616.734,273.562,621.906,257.28Zm44.627,0c3.217-10.125-.764-17.739-10.725-17.739-10.043,0-18.86,7.614-22.077,17.739-3.19,10.044.763,17.739,10.806,17.739C654.5,275.02,663.343,267.324,666.533,257.28Z" transform="translate(-15.314 -186)"/>
    <path class="cls-2" d="M708.429,284.254l-4.512-19.2h-8.424l-6.1,19.2h-11.5l17.163-54.029h25.27c11.259,0,15.882,7.372,12.69,17.416a23.721,23.721,0,0,1-17,16.039l5.694,20.574Zm12.79-36.694c1.415-4.456-1.192-7.209-5.728-7.209H703.342l-4.632,14.581h12.149A10.763,10.763,0,0,0,721.219,247.56Z" transform="translate(-15.314 -186)"/>
    <path class="cls-1" d="M748.768,284.254l4.039-12.718c30.236-17.416,33.229-19.44,34.516-23.49.823-2.592-1.416-4.212-4.9-4.212-5.75,0-10.793,2.106-16.03,5.59l-5.461-10.855a42.438,42.438,0,0,1,25.748-9.153c14.012,0,20.694,7.776,17.246,18.63-2.342,7.372-8.483,13.446-24.063,21.952h17.575l-4.528,14.256Z" transform="translate(-15.314 -186)"/>
    <path class="cls-1" d="M805.126,257.28c4.657-14.662,16.708-27.865,32.825-27.865s19.78,13.2,15.123,27.865-16.734,27.945-32.852,27.945S800.469,271.941,805.126,257.28Zm31.507,0c2.908-9.153,1.922-13.447-3.262-13.447s-8.9,4.293-11.8,13.447-1.948,13.527,3.235,13.527S833.725,266.434,836.633,257.28Z" transform="translate(-15.314 -186)"/>
    <path class="cls-1" d="M849.287,284.254l4.039-12.718c30.236-17.416,33.229-19.44,34.516-23.49.823-2.592-1.416-4.212-4.9-4.212-5.75,0-10.793,2.106-16.03,5.59l-5.461-10.855a42.438,42.438,0,0,1,25.748-9.153c14.012,0,20.694,7.776,17.246,18.63-2.342,7.372-8.483,13.446-24.063,21.952h17.575l-4.528,14.256Z" transform="translate(-15.314 -186)"/>
    <path class="cls-1" d="M914,284.254l10.55-33.211-12.034,9.072-6.171-9.639,27.086-20.251h14.093l-17.163,54.029Z" transform="translate(-15.314 -186)"/>
  </g>
</svg>
